<svg width="157" height="32" viewBox="0 0 157 32" fill="none" xmlns="http://www.w3.org/2000/svg">
<g clip-path="url(#clip0_184_1350)">
<path fill-rule="evenodd" clip-rule="evenodd" d="M34.9747 1.69971C35.276 1.98846 35.5143 2.33532 35.6747 2.71884C35.8352 3.10236 35.9144 3.51438 35.9076 3.92942V4.00955C35.9041 4.41379 35.8199 4.81336 35.6598 5.18526C35.4997 5.55716 35.2668 5.89406 34.9747 6.17656C34.6829 6.47477 34.3324 6.71057 33.9449 6.86937C33.5573 7.02817 33.141 7.1066 32.7216 7.0998C31.8844 7.10454 31.079 6.78301 30.4795 6.20472C29.88 5.62644 29.5346 4.83788 29.518 4.00955V3.92942C29.5111 3.51438 29.5904 3.10236 29.7508 2.71884C29.9113 2.33532 30.1496 1.98846 30.4509 1.69971C30.7467 1.40199 31.1005 1.16669 31.4907 1.00801C31.881 0.849326 32.2997 0.770562 32.7216 0.776469C33.141 0.769671 33.5573 0.848099 33.9449 1.0069C34.3324 1.1657 34.6829 1.4015 34.9747 1.69971Z" fill="#EB5C60"/>
<path fill-rule="evenodd" clip-rule="evenodd" d="M149.301 26.1046V31.2434H133.582V3.92942H139.972V26.1046H149.301ZM118.532 3.92942L129.586 31.2434H123.514L121.349 25.3904H110.048L107.865 31.2434H101.933L112.952 3.92942H118.532ZM111.808 20.6349H119.588L115.716 10.1831L111.808 20.6349ZM91.6713 3.92942H97.9905V31.2434H92.745L78.9977 14.6773V31.2434H72.6609V3.92942H77.9416L91.6713 20.4955V3.92942ZM56.2205 8.84176C54.9657 8.82526 53.7186 9.03785 52.5417 9.46887C51.4758 9.86488 50.5047 10.4759 49.6901 11.2631C48.8785 12.0429 48.2479 12.9879 47.8419 14.0328C47.4026 15.1662 47.1875 16.3727 47.2082 17.5864C47.187 18.7946 47.4022 19.9954 47.8419 21.1226C48.2571 22.1679 48.8864 23.1168 49.6901 23.9097C50.4902 24.7023 51.4498 25.3195 52.5065 25.7214C53.6708 26.1536 54.9067 26.3663 56.1501 26.3485C57.4022 26.3498 58.6456 26.1437 59.829 25.7388C60.2708 25.5852 60.7004 25.3989 61.1139 25.1814V17.1683H66.9402V28.2298C65.3618 29.3826 63.5928 30.2549 61.7124 30.8079C59.792 31.4018 57.7924 31.7071 55.7805 31.7138C53.7374 31.7351 51.7081 31.3807 49.7957 30.6686C48.0139 30.0177 46.3805 29.0229 44.9903 27.7421C43.6495 26.4654 42.5785 24.9377 41.8396 23.2478C41.0853 21.4548 40.708 19.5285 40.7306 17.5864C40.7276 16.77 40.7888 15.9547 40.9137 15.1477C41.5097 14.7098 42.0722 14.2289 42.5964 13.7088C44.6774 11.699 46.0373 9.07099 46.4689 6.22533C47.5025 5.50339 48.6268 4.9178 49.8133 4.48336C51.7517 3.77887 53.8037 3.43057 55.8685 3.45561C58.1306 3.44883 60.3746 3.85635 62.4869 4.65756C63.1018 4.88177 63.7015 5.14476 64.2823 5.44493C64.483 5.54945 64.8526 5.76545 65.3913 6.08945V11.925C64.5202 11.289 63.6024 10.7184 62.6453 10.2179C62.0157 9.92065 61.3622 9.67592 60.6915 9.48628C59.9754 9.28555 59.2461 9.13422 58.5088 9.03337C57.7519 8.91312 56.987 8.84907 56.2205 8.84176ZM29.518 17.3948C30.5869 17.631 31.6792 17.7478 32.7744 17.7432C33.8274 17.7465 34.8776 17.639 35.9076 17.4227V31.2434H29.518V17.3948ZM24.8887 23.4638C24.869 24.8444 24.4933 26.1971 23.7973 27.3937C22.9818 28.8662 21.7058 30.0373 20.1607 30.7313C18.3693 31.5735 16.3853 31.934 14.4083 31.7765C12.2468 31.6441 10.4924 31.2759 9.14529 30.6721C8.16569 30.2637 7.23522 29.7484 6.37119 29.1356V22.5162C7.58516 23.6612 8.97104 24.6131 10.4795 25.3382C11.9769 26.0535 13.1621 26.4484 14.0352 26.5227C14.8741 26.6002 15.7203 26.5174 16.5276 26.2788C17.189 26.0944 17.786 25.7327 18.2527 25.2336C18.6097 24.8081 18.803 24.2712 18.7983 23.7181C18.8086 23.3779 18.7366 23.0401 18.5885 22.7329C18.4403 22.4257 18.2202 22.1579 17.9464 21.9518C17.2714 21.4443 16.5345 21.0229 15.7531 20.6976C14.8695 20.3109 13.8908 19.9102 12.8241 19.4956C11.822 19.1107 10.858 18.6349 9.94443 18.0742C9.12519 17.5706 8.39399 16.9388 7.77936 16.2033C7.20989 15.5291 6.80834 14.7319 6.60706 13.876C6.40462 13.0549 6.3018 12.2128 6.30078 11.3676C6.34129 10.3386 6.55547 9.32353 6.93446 8.36446C7.42176 7.14301 8.23743 6.07676 9.29315 5.28118C10.4338 4.36839 11.9968 3.84232 13.9824 3.69251C15.5974 3.56256 17.2226 3.64457 18.8159 3.93639C18.7939 5.9194 19.2046 7.88375 20.0199 9.69532C19.4402 9.43925 18.8439 9.2216 18.235 9.04383C17.2755 8.72354 16.2652 8.57834 15.2532 8.6153C14.688 8.63747 14.1307 8.75531 13.6057 8.9637C13.3273 9.08981 13.079 9.27263 12.877 9.50022C12.7071 9.70204 12.5639 9.92448 12.451 10.1622C12.3343 10.4255 12.2493 10.7015 12.1975 10.9844C12.1348 11.3375 12.1229 11.6976 12.1623 12.0539C12.208 12.3754 12.324 12.6831 12.5021 12.9557C12.6802 13.2282 12.9163 13.4591 13.1938 13.6322C13.8571 14.1108 14.5941 14.4802 15.3765 14.7261C16.1932 14.9955 17.2493 15.3764 18.5448 15.8688C19.713 16.2846 20.8264 16.8379 21.8611 17.5167C22.7866 18.1663 23.5333 19.0346 24.0332 20.0426C24.5812 21.1024 24.874 22.2734 24.8887 23.4638Z" fill="white"/>
</g>
<defs>
<clipPath id="clip0_184_1350">
<rect width="143" height="31" fill="white" transform="translate(6.30078 0.776489)"/>
</clipPath>
</defs>
</svg>
